<svg width="21" height="22" viewBox="0 0 21 22" fill="none" xmlns="http://www.w3.org/2000/svg">
<path d="M12.005 6.04942V12.0519C12.005 12.177 11.9648 12.2797 11.8844 12.3601C11.804 12.4405 11.7013 12.4807 11.5762 12.4807H7.28875C7.1637 12.4807 7.06098 12.4405 6.98059 12.3601C6.90019 12.2797 6.86 12.177 6.86 12.0519V11.1944C6.86 11.0694 6.90019 10.9666 6.98059 10.8863C7.06098 10.8059 7.1637 10.7657 7.28875 10.7657H10.29V6.04942C10.29 5.92436 10.3302 5.82164 10.4106 5.74125C10.491 5.66086 10.5937 5.62067 10.7187 5.62067H11.5762C11.7013 5.62067 11.804 5.66086 11.8844 5.74125C11.9648 5.82164 12.005 5.92436 12.005 6.04942ZM16.6007 14.4234C16.6007 14.4234 16.7637 14.1443 17.0897 13.586C17.4157 13.0278 17.5787 12.0876 17.5787 10.7657C17.5787 9.44369 17.2527 8.22443 16.6007 7.10789C15.9486 5.99136 15.0643 5.10706 13.9478 4.455C12.8312 3.80294 11.612 3.47692 10.29 3.47692C8.96802 3.47692 7.74876 3.80294 6.63223 4.455C5.51569 5.10706 4.63139 5.99136 3.97934 7.10789C3.32728 8.22443 3.00125 9.44369 3.00125 10.7657C3.00125 12.0876 3.32728 13.3069 3.97934 14.4234C4.63139 15.54 5.51569 16.4243 6.63223 17.0763C7.74876 17.7284 8.96802 18.0544 10.29 18.0544C11.612 18.0544 12.8312 17.7284 13.9478 17.0763C15.0643 16.4243 15.9486 15.54 16.6007 14.4234ZM19.2 5.60057C19.2 5.60057 19.43 5.99471 19.89 6.78298C20.35 7.57125 20.58 8.89882 20.58 10.7657C20.58 12.6325 20.12 14.3542 19.2 15.9308C18.2799 17.5073 17.0316 18.7556 15.4551 19.6756C13.8785 20.5957 12.1568 21.0557 10.29 21.0557C8.42315 21.0557 6.70145 20.5957 5.1249 19.6756C3.54835 18.7556 2.30006 17.5073 1.38004 15.9308C0.460013 14.3542 0 12.6325 0 10.7657C0 8.89882 0.460013 7.17712 1.38004 5.60057C2.30006 4.02402 3.54835 2.77573 5.1249 1.85571C6.70145 0.93568 8.42315 0.475666 10.29 0.475666C12.1568 0.475666 13.8785 0.93568 15.4551 1.85571C17.0316 2.77573 18.2799 4.02402 19.2 5.60057Z" fill="#6A9302"/>
</svg>
